<svg xmlns="http://www.w3.org/2000/svg" viewBox="0 0 512 512">
  <rect width="512" height="512" rx="96" fill="#0f766e"/>
  <path fill="#f8fafc" d="M394 245c15 0 28 12 28 27 0 13-9 24-22 27l-108 25-48 91c-4 8-12 13-21 13h-18l23-92-86 20-31 43c-5 7-12 11-21 11H75l20-83-20-83h15c9 0 16 4 21 11l31 43 86 20-23-92h18c9 0 17 5 21 13l48 91 108 24c12 3 22 14 22 28 0 15-13 27-28 27H118c-16 0-29-13-29-29s13-29 29-29h276Z"/>
  <path fill="#99f6e4" d="M144 132h224c13 0 24 11 24 24v34H120v-34c0-13 11-24 24-24Z"/>
</svg>
